<?xml version="1.0" encoding="UTF-8" standalone="no"?>
<!DOCTYPE svg PUBLIC "-//W3C//DTD SVG 20010904//EN"
              "http://www.w3.org/TR/2001/REC-SVG-20010904/DTD/svg10.dtd">

<svg xmlns="http://www.w3.org/2000/svg"
     width="1289" height="238"
     viewBox="0 0 1920 238">
  <path id="Selection #1"
        fill="#0f1626" stroke="#0f1626" stroke-width="1"
        d="M 50.00,141.00
           C 50.02,127.42 57.73,102.55 63.47,90.00
             87.35,37.81 133.54,1.25 192.33,0.34
             233.46,-0.30 268.23,11.40 300.18,37.43
             307.94,43.75 324.43,59.52 327.00,69.00
             332.86,65.72 331.79,62.05 338.02,60.47
             341.66,59.54 344.50,60.48 347.91,61.66
             366.40,68.05 365.30,76.59 367.00,93.00
             371.24,90.10 374.03,87.63 379.00,85.67
             388.19,82.06 401.04,83.34 408.51,90.05
             411.38,92.63 412.27,93.17 413.00,97.00
             416.25,99.35 416.50,101.15 417.00,105.00
             421.27,102.43 422.40,98.86 425.59,95.30
             428.44,92.13 435.08,87.66 439.00,85.90
             442.50,84.34 445.18,84.08 448.91,83.64
             465.65,81.71 478.98,88.53 489.20,101.72
             495.19,109.45 497.01,115.32 501.00,124.00
             505.38,119.02 508.49,124.11 513.00,126.16
             516.09,127.57 518.51,126.71 522.00,127.80
             525.33,128.84 527.36,130.88 530.00,133.00
             529.72,120.35 527.94,121.99 530.61,107.00
             535.23,81.17 552.45,59.90 577.00,50.43
             600.40,41.40 627.43,44.22 646.11,61.85
             654.09,69.38 659.75,78.80 660.00,90.00
             666.67,87.50 675.70,86.91 674.00,97.00
             681.61,97.51 685.38,96.35 688.00,105.00
             690.48,103.08 693.23,100.58 696.01,99.26
             706.07,94.50 715.39,97.97 720.00,108.00
             724.72,103.66 725.62,102.53 732.00,104.00
             732.00,98.79 731.10,93.10 737.02,90.74
             740.79,89.23 743.88,91.17 747.05,87.69
             747.05,87.69 750.39,83.01 750.39,83.01
             753.86,78.75 758.89,75.45 764.00,73.47
             771.64,70.50 779.95,70.91 788.00,71.00
             811.58,71.28 832.93,88.05 838.35,111.00
             839.78,117.06 840.30,122.87 839.00,129.00
             847.77,129.49 852.13,132.85 850.00,142.00
             858.56,140.47 857.20,141.21 865.00,144.00
             864.58,134.80 870.98,132.07 879.00,134.00
             877.66,128.28 877.85,126.73 883.76,126.00
             882.52,117.78 881.70,112.36 883.76,104.00
             887.79,84.31 906.20,69.66 926.00,68.00
             927.52,58.82 933.44,61.29 940.00,63.00
             941.27,55.24 945.22,54.85 952.00,56.00
             952.41,47.07 953.76,38.83 960.18,32.09
             969.59,22.22 989.48,19.77 997.00,33.00
             1003.10,29.93 1003.53,29.59 1010.00,32.00
             1011.91,11.03 1037.04,4.75 1054.00,11.46
             1075.38,19.92 1081.75,43.01 1073.00,63.00
             1083.93,63.01 1087.95,63.99 1088.00,76.05
             1093.55,75.01 1099.54,74.21 1105.00,76.05
             1116.42,80.09 1119.13,92.56 1115.45,103.00
             1110.91,115.88 1102.53,122.24 1093.00,131.00
             1107.89,131.70 1110.99,137.00 1111.00,151.00
             1120.23,148.38 1129.04,150.14 1135.00,158.00
             1135.00,158.00 1129.00,159.00 1129.00,159.00
             1147.88,159.00 1147.40,158.43 1165.00,166.00
             1165.00,153.76 1164.46,148.05 1168.52,136.00
             1176.43,112.48 1195.33,93.39 1220.00,88.28
             1227.41,86.75 1230.64,86.99 1238.00,87.00
             1253.65,87.02 1270.69,92.99 1283.00,102.67
             1283.00,102.67 1299.00,118.00 1299.00,118.00
             1303.76,109.10 1312.53,113.24 1317.00,120.00
             1321.99,102.55 1338.96,97.68 1354.00,106.00
             1351.04,91.29 1349.78,80.58 1355.23,66.00
             1363.71,43.32 1385.68,31.67 1409.00,32.00
             1412.06,32.05 1413.05,32.16 1416.00,33.00
             1416.04,21.77 1419.48,20.71 1430.00,22.00
             1433.81,1.97 1457.66,-3.06 1474.00,4.31
             1490.88,11.93 1499.39,27.19 1505.00,44.00
             1509.68,37.98 1516.90,33.79 1523.90,39.43
             1526.57,41.59 1528.30,45.06 1530.00,48.00
             1533.56,42.07 1543.17,43.00 1547.91,47.23
             1551.18,50.14 1552.92,53.99 1554.61,55.69
             1558.79,59.88 1562.07,55.90 1568.91,61.53
             1582.31,72.58 1574.29,88.39 1575.00,97.00
             1577.63,91.44 1581.81,87.98 1587.00,84.83
             1599.81,77.03 1614.86,75.36 1628.00,83.47
             1641.65,91.89 1648.78,109.45 1646.00,125.00
             1657.14,118.94 1666.39,123.14 1670.61,135.00
             1674.67,146.37 1672.65,160.77 1669.00,172.00
             1682.35,174.69 1684.55,178.49 1696.00,184.00
             1697.03,181.13 1701.33,181.92 1704.00,182.17
             1713.31,183.05 1717.96,182.69 1727.00,179.64
             1741.16,174.88 1748.55,168.08 1765.00,168.14
             1765.00,168.14 1778.00,168.14 1778.00,168.14
             1780.32,168.59 1786.23,170.17 1787.91,169.89
             1791.54,169.29 1793.08,164.89 1800.00,162.80
             1813.97,158.58 1826.62,165.91 1827.00,181.00
             1827.00,181.00 1841.17,163.00 1841.17,163.00
             1851.59,151.42 1866.16,141.01 1881.00,136.00
             1885.14,134.61 1891.67,132.94 1896.00,133.33
             1898.00,133.50 1901.17,134.22 1902.99,135.07
             1912.98,139.75 1913.68,153.85 1910.45,163.00
             1908.81,167.66 1905.69,172.86 1903.00,177.00
             1906.20,177.00 1911.10,176.64 1913.90,178.17
             1918.41,180.64 1919.92,185.22 1920.00,190.00
             1920.00,190.00 1920.00,218.00 1920.00,218.00
             1920.00,220.21 1920.24,223.59 1919.01,225.47
             1916.33,229.55 1905.70,231.78 1901.00,231.96
             1885.89,232.55 1876.43,223.06 1871.00,221.51
             1868.91,220.91 1866.19,221.00 1864.00,221.00
             1864.00,221.00 1845.00,221.00 1845.00,221.00
             1835.39,221.12 1828.87,225.98 1813.00,226.00
             1813.00,226.00 1809.00,226.00 1809.00,226.00
             1795.65,225.94 1787.17,221.40 1783.00,221.29
             1779.12,221.18 1776.42,223.29 1773.00,223.57
             1768.56,223.93 1767.54,221.50 1761.00,222.44
             1750.35,223.98 1740.02,228.53 1729.00,227.91
             1729.00,227.91 1712.00,225.88 1712.00,225.88
             1712.00,225.88 1687.00,229.86 1687.00,229.86
             1687.00,229.86 1659.00,229.86 1659.00,229.86
             1648.43,229.87 1632.58,225.74 1630.00,225.67
             1626.74,225.59 1621.73,228.18 1618.00,229.10
             1611.08,230.82 1606.05,231.08 1599.00,231.00
             1587.23,230.86 1581.80,226.64 1577.00,226.30
             1577.00,226.30 1549.00,230.00 1549.00,230.00
             1535.68,230.15 1524.23,230.43 1511.00,228.25
             1505.85,227.40 1491.55,223.16 1488.00,223.60
             1482.01,224.35 1482.24,226.23 1472.00,225.99
             1464.93,225.81 1463.49,223.78 1459.72,223.97
             1459.72,223.97 1444.00,227.55 1444.00,227.55
             1434.34,229.50 1417.65,231.98 1408.00,232.00
             1408.00,232.00 1366.00,230.83 1366.00,230.83
             1366.00,230.83 1342.00,226.71 1342.00,226.71
             1337.53,226.29 1334.25,228.22 1330.00,229.36
             1324.88,230.74 1316.25,232.16 1311.00,231.96
             1306.46,231.78 1299.36,230.35 1295.00,228.97
             1291.82,227.97 1288.34,226.19 1285.00,226.43
             1285.00,226.43 1269.00,230.20 1269.00,230.20
             1256.81,232.68 1237.18,235.98 1225.00,236.00
             1225.00,236.00 1191.00,236.00 1191.00,236.00
             1181.94,235.89 1163.20,232.90 1154.00,231.00
             1149.41,230.05 1139.08,227.13 1135.00,227.55
             1135.00,227.55 1129.00,228.70 1129.00,228.70
             1123.06,229.58 1117.00,230.03 1111.00,230.00
             1111.00,230.00 1073.00,225.73 1073.00,225.73
             1073.00,225.73 1045.00,222.04 1045.00,222.04
             1045.00,222.04 1036.00,222.04 1036.00,222.04
             1036.00,222.04 1024.00,221.00 1024.00,221.00
             1016.42,220.99 999.45,220.17 993.00,222.00
             993.00,222.00 996.00,223.00 996.00,223.00
             984.98,226.57 973.29,227.43 963.00,221.01
             959.59,218.88 955.89,214.89 953.00,212.00
             948.40,217.06 947.75,215.34 942.00,215.87
             938.11,216.24 935.70,218.61 932.00,219.89
             927.92,221.30 920.25,221.34 916.00,220.53
             907.96,219.01 906.53,215.13 903.00,215.59
             900.27,215.95 898.25,219.30 891.00,221.91
             883.47,224.62 869.09,226.07 861.00,226.00
             861.00,226.00 844.00,225.00 844.00,225.00
             833.60,224.95 814.47,222.46 804.00,220.58
             804.00,220.58 778.00,214.80 778.00,214.80
             772.92,214.04 771.57,216.98 766.00,218.32
             759.90,219.78 756.54,218.20 751.00,216.00
             743.51,229.61 718.63,228.16 705.00,228.00
             696.66,227.90 680.24,225.17 672.00,223.11
             668.15,222.14 658.98,218.63 656.00,218.65
             656.00,218.65 642.00,222.58 642.00,222.58
             634.44,224.65 625.83,225.99 618.00,226.00
             607.77,226.02 604.38,226.33 594.00,224.73
             594.00,224.73 582.00,222.34 582.00,222.34
             575.47,221.69 568.52,225.22 562.00,221.00
             562.00,221.00 571.00,218.00 571.00,218.00
             571.00,218.00 539.71,219.66 539.71,219.66
             539.71,219.66 521.00,217.35 521.00,217.35
             521.00,217.35 493.00,226.42 493.00,226.42
             493.00,226.42 465.00,232.04 465.00,232.04
             465.00,232.04 455.00,232.04 455.00,232.04
             455.00,232.04 448.17,233.76 448.17,233.76
             448.17,233.76 433.00,233.76 433.00,233.76
             433.00,233.76 422.00,233.76 422.00,233.76
             422.00,233.76 416.00,232.01 416.00,232.01
             416.00,232.01 406.00,232.01 406.00,232.01
             406.00,232.01 399.00,230.32 399.00,230.32
             399.00,230.32 380.00,226.96 380.00,226.96
             380.00,226.96 361.01,221.31 361.01,221.31
             357.14,220.94 353.47,223.87 350.00,225.46
             345.39,227.57 342.99,227.94 338.00,228.00
             333.51,228.05 325.19,228.35 321.17,227.05
             316.50,225.54 314.20,221.95 310.00,222.36
             307.32,222.63 301.61,225.67 298.72,226.66
             298.72,226.66 273.00,233.63 273.00,233.63
             247.56,238.73 220.21,238.73 195.00,232.43
             186.43,230.30 174.49,227.46 167.00,223.00
             160.64,229.47 143.11,235.88 134.00,236.00
             134.00,236.00 119.00,236.00 119.00,236.00
             111.04,235.99 106.43,234.35 99.00,231.66
             92.19,229.19 81.04,222.21 75.00,221.26
             70.18,220.51 64.63,222.95 60.00,224.30
             52.49,226.50 49.84,227.10 42.00,227.00
             37.72,226.94 31.56,225.63 27.61,223.98
             27.61,223.98 19.41,220.23 19.41,220.23
             19.41,220.23 0.00,221.00 0.00,221.00
             0.00,221.00 0.00,173.00 0.00,173.00
             0.00,170.62 -0.21,167.36 1.01,165.26
             5.67,157.22 25.11,158.17 32.58,161.63
             45.32,167.53 43.36,172.07 51.00,177.00
             49.21,169.64 49.99,149.66 50.00,141.00 Z
           M 626.00,214.00
           C 626.00,214.00 627.00,215.00 627.00,215.00
             627.00,215.00 627.00,214.00 627.00,214.00
             627.00,214.00 626.00,214.00 626.00,214.00 Z
           M 1862.00,217.00
           C 1862.00,217.00 1863.00,218.00 1863.00,218.00
             1863.00,218.00 1863.00,217.00 1863.00,217.00
             1863.00,217.00 1862.00,217.00 1862.00,217.00 Z
           M 572.00,218.00
           C 572.00,218.00 573.00,219.00 573.00,219.00
             573.00,219.00 573.00,218.00 573.00,218.00
             573.00,218.00 572.00,218.00 572.00,218.00 Z
           M 574.00,218.00
           C 574.00,218.00 575.00,219.00 575.00,219.00
             575.00,219.00 575.00,218.00 575.00,218.00
             575.00,218.00 574.00,218.00 574.00,218.00 Z
           M 576.00,218.00
           C 576.00,218.00 577.00,219.00 577.00,219.00
             577.00,219.00 577.00,218.00 577.00,218.00
             577.00,218.00 576.00,218.00 576.00,218.00 Z
           M 993.00,220.00
           C 993.00,220.00 1006.00,218.00 1006.00,218.00
             1006.00,218.00 993.00,220.00 993.00,220.00 Z" />
</svg>
